<svg xmlns="http://www.w3.org/2000/svg" aria-labelledby="4exbff-aria" role="img" viewBox="0 0 360 524"><title id="4exbff-aria">Loading...</title><rect role="presentation" x="0" y="0" width="100%" height="100%" clip-path="url(#4exbff-diff)" style="fill:url(#4exbff-animated-diff)"></rect><defs><clipPath id="4exbff-diff"><rect x="12" y="36" rx="4" ry="4" width="162" height="162"></rect><rect x="12" y="210" rx="0" ry="0" width="162" height="20"></rect><rect x="12" y="236" rx="0" ry="0" width="97.2" height="20"></rect><rect x="186" y="36" rx="4" ry="4" width="162" height="162"></rect><rect x="186" y="210" rx="0" ry="0" width="162" height="20"></rect><rect x="186" y="236" rx="0" ry="0" width="97.2" height="20"></rect><rect x="12" y="304" rx="4" ry="4" width="162" height="162"></rect><rect x="12" y="478" rx="0" ry="0" width="162" height="20"></rect><rect x="12" y="504" rx="0" ry="0" width="97.2" height="20"></rect><rect x="186" y="304" rx="4" ry="4" width="162" height="162"></rect><rect x="186" y="478" rx="0" ry="0" width="162" height="20"></rect><rect x="186" y="504" rx="0" ry="0" width="97.2" height="20"></rect></clipPath><linearGradient id="4exbff-animated-diff"><stop offset="0%" stop-color="#f5f6f7" stop-opacity="1"><animate attributeName="offset" values="-2; -2; 1" keyTimes="0; 0.25; 1" dur="1.2s" repeatCount="indefinite"></animate></stop><stop offset="50%" stop-color="#eee" stop-opacity="1"><animate attributeName="offset" values="-1; -1; 2" keyTimes="0; 0.25; 1" dur="1.2s" repeatCount="indefinite"></animate></stop><stop offset="100%" stop-color="#f5f6f7" stop-opacity="1"><animate attributeName="offset" values="0; 0; 3" keyTimes="0; 0.25; 1" dur="1.2s" repeatCount="indefinite"></animate></stop></linearGradient></defs></svg>